<svg width="170" height="60" viewBox="0 0 170 60" fill="none" xmlns="http://www.w3.org/2000/svg">
<path d="M14.9719 34.2044C11.619 35.476 10.0649 36.372 10.0649 36.372C9.68718 36.5659 9.21351 37.0247 9.00918 37.3942L6.44576 42.025C6.24143 42.3914 6.40861 42.5884 6.81108 42.4591C6.81108 42.4591 7.83892 42.1327 8.8389 41.8433C11.263 41.1351 15.7459 40.0852 15.7459 40.0852C16.1608 39.9898 16.6654 39.608 16.8697 39.2416L20.3991 32.8681C20.6034 32.4986 20.4393 32.3077 20.0337 32.437C20.0337 32.437 17.5199 33.2406 14.9657 34.2105" fill="white"/>
<path d="M37.7421 36.9477C38.1662 36.9138 38.3458 36.5843 38.1415 36.2179L34.7607 30.1123C34.5564 29.7459 34.0456 29.4935 33.6245 29.555L26.8538 30.6943C26.4358 30.7774 26.2624 31.1438 26.4637 31.5102L29.5132 37.0154C29.7175 37.3849 30.2283 37.6527 30.6525 37.6127L37.739 36.9415L37.7421 36.9477Z" fill="white"/>
<path d="M33.1446 27.1935L32.5285 26.0789L31.3427 23.9359L29.7514 21.0663C29.5471 20.6969 29.0549 20.5152 28.6555 20.6568C24.024 21.9931 19.4451 24.0499 17.2687 25.4816C16.0644 26.2729 15.018 27.1319 15.018 27.1319C14.6898 27.3998 14.2564 27.9201 14.052 28.2896L11.2007 33.4377C10.9995 33.8041 11.145 33.9611 11.532 33.7825C11.532 33.7825 12.2719 33.4438 13.1016 33.099C15.9158 31.9228 18.9931 30.8914 22.2531 30.0354C22.315 30.02 22.3801 30.0015 22.4389 29.9892C26.0456 29.0655 32.7514 27.9879 32.7514 27.9879C33.1693 27.9201 33.3489 27.563 33.1446 27.1966" fill="white"/>
<path d="M17.0776 23.6373C17.0776 23.6373 20.2911 21.756 22.4706 20.857C24.387 20.0657 27.7925 19.0866 27.7925 19.0866C28.2012 18.9696 28.3684 18.5724 28.1671 18.206L25.0093 12.5068C24.3592 11.4661 23.353 11.5061 22.7276 12.633L22.7183 12.6392L16.7834 23.3602C16.5791 23.7266 16.7122 23.8559 17.0776 23.6404" fill="white"/>
<path d="M43.4234 45.7566L39.7826 39.1799C39.5783 38.8135 39.1727 38.5272 38.8817 38.5426L38.6124 38.5611C25.1265 39.4786 15.2784 41.7139 9.38999 43.4258C7.64389 43.9339 5.5913 44.6297 5.5913 44.6297C5.18883 44.7652 4.904 44.8422 4.48915 45.5442C4.48915 45.5442 4.45819 45.5996 4.38079 45.7412V45.7474C3.87306 46.8435 4.4551 47.7118 5.74609 47.7118L5.81111 47.721H42.055C43.346 47.721 43.9312 46.8497 43.4203 45.7535" fill="white"/>
<path d="M50.3178 34.0443H54.9803L53.8317 29.9739C53.2899 28.0834 52.8193 25.8481 52.6491 24.4718C52.4447 25.8481 51.9742 28.0557 51.4664 29.9739L50.3178 34.0443ZM55.553 36.1657H49.742L48.4262 40.8673C48.3241 41.1844 48.225 41.3261 47.1414 41.3261C46.7699 41.3261 46.0609 41.2984 45.417 41.2399L51.4293 21.5221C51.4974 21.2357 51.8689 21.1218 52.4757 21.1218C52.9463 21.1218 53.4199 21.1495 53.7574 21.208L59.8037 40.8396C59.8687 41.1567 59.7016 41.3291 58.6211 41.3291C58.2155 41.3291 57.6737 41.3291 56.9988 41.2706L55.5468 36.1688L55.553 36.1657Z" fill="white"/>
<path d="M61.1935 27.6276C62.5124 27.1381 64.7414 26.6516 66.5309 26.6516C70.0757 26.6516 71.2924 27.7108 71.2924 30.4911V40.8087C71.2924 41.2675 71.2274 41.2675 68.4566 41.2675V31.1777C68.4566 29.3734 68.1191 28.6868 66.4287 28.6868C65.7198 28.6868 64.6733 28.8562 63.9272 29.2041V40.8118C63.9272 41.2706 63.8591 41.2706 61.1904 41.2706V27.6276H61.1935Z" fill="white"/>
<path d="M73.7568 21.2634C73.7568 20.2012 74.2305 20.2012 76.4936 20.2012V27.7662C77.54 26.9934 78.992 26.6485 80.2768 26.6485C83.1808 26.6485 83.7907 28.0248 83.7907 30.4295V40.8057C83.7907 41.2644 83.6545 41.2644 80.9548 41.2644V31.0884C80.9548 29.8291 80.6824 28.7946 79.0292 28.7946C78.2862 28.7946 77.3048 28.9947 76.4967 29.5982V40.8057C76.4967 41.2644 76.4627 41.2644 73.7599 41.2644V21.2603L73.7568 21.2634Z" fill="white"/>
<path d="M91.0853 34.2474C89.7355 34.2474 88.5869 34.6477 88.5869 37.1417C88.5869 39.2323 89.4661 39.6049 90.785 39.6049C91.528 39.6049 92.2679 39.3739 92.5744 39.1184C92.6766 38.1731 92.6766 36.0517 92.6766 34.503C92.237 34.3306 91.5621 34.2444 91.0884 34.2444M86.1194 27.4244C86.6953 27.1073 88.686 26.6516 91.2556 26.6516C94.1595 26.6516 95.4412 27.5691 95.4412 30.1493V31.6673C95.4412 34.9618 95.4072 38.401 95.24 40.5809C94.3267 41.0397 92.7385 41.5569 90.5435 41.5569C88.0792 41.5846 85.7139 41.129 85.7139 37.2002C85.7139 33.2714 87.9429 32.5017 90.206 32.5017C90.9491 32.5017 91.9955 32.5879 92.6704 32.8742V30.6112C92.6704 29.2626 91.9274 28.9208 90.5776 28.9208C88.8903 28.9208 87.0978 29.2072 86.1194 29.552C85.816 29.0932 85.7479 28.576 85.7479 28.2342C85.7479 27.9171 85.8501 27.603 86.1194 27.4306" fill="white"/>
<path d="M97.874 27.6276C99.1929 27.1381 101.419 26.6516 103.211 26.6516C106.756 26.6516 107.973 27.7108 107.973 30.4911V40.8087C107.973 41.2675 107.905 41.2675 105.137 41.2675V31.1777C105.137 29.3734 104.8 28.6868 103.109 28.6868C102.4 28.6868 101.354 28.8562 100.611 29.2041V40.8118C100.611 41.2706 100.543 41.2706 97.874 41.2706V27.6276Z" fill="white"/>
<path d="M133.441 40.5224C132.156 41.1259 130.23 41.5539 128.41 41.5539C124.388 41.5539 123.342 40.0082 123.342 36.7969V27.4245C123.342 27.1001 124.287 26.938 126.178 26.938V36.997C126.178 38.8598 126.617 39.5187 128.441 39.5187C129.048 39.5187 129.995 39.4048 130.704 39.0014V27.4245C130.704 26.938 130.738 26.938 133.441 26.938V40.5224Z" fill="white"/>
<path d="M138.607 33.5578C139.892 33.5885 141.985 33.53 143.168 33.2437C143.304 32.7264 143.338 32.0675 143.338 31.5226C143.304 29.4596 142.864 28.6868 141.412 28.6868C139.96 28.6868 138.812 29.6906 138.607 33.5578ZM146.003 31.267C146.003 32.5294 145.901 33.9611 145.632 34.9926C143.301 35.3651 140.192 35.4513 138.57 35.4513C138.706 38.4903 139.651 39.2908 141.712 39.2908C143.065 39.2908 144.415 38.949 145.564 38.4041C145.731 38.8351 145.799 39.5217 145.799 39.9805C145.799 40.8703 143.672 41.5569 141.14 41.5569C138 41.5569 135.737 40.4393 135.737 34.8509C135.737 27.6831 138.743 26.6516 141.716 26.6516C144.688 26.6516 146.006 28.1726 146.006 31.267" fill="white"/>
<path d="M148.063 27.9417C149.382 27.1689 151.004 26.6516 152.657 26.6516C154.31 26.6516 155.022 27.0827 155.022 27.8555C155.022 28.1726 154.954 28.7453 154.719 29.2318C154.211 29.0009 153.669 28.8869 153.097 28.8869C152.354 28.8869 151.508 29.0871 150.864 29.5458L150.83 40.8087C150.83 41.2675 150.796 41.2675 148.06 41.2675V27.9417H148.063Z" fill="white"/>
<path d="M161.44 34.2474C160.09 34.2474 158.938 34.6477 158.938 37.1417C158.938 39.2323 159.818 39.6049 161.133 39.6049C161.876 39.6049 162.619 39.3739 162.926 39.1184C163.025 38.1731 163.025 36.0517 163.025 34.503C162.585 34.3306 161.91 34.2444 161.437 34.2444M156.474 27.4244C157.047 27.1073 159.04 26.6516 161.607 26.6516C164.514 26.6516 165.796 27.5691 165.796 30.1493V31.6673C165.796 34.9618 165.762 38.401 165.595 40.5809C164.681 41.0397 163.096 41.5569 160.898 41.5569C158.434 41.5846 156.068 41.129 156.068 37.2002C156.068 33.2714 158.301 32.5017 160.561 32.5017C161.304 32.5017 162.353 32.5879 163.025 32.8742V30.6112C163.025 29.2626 162.282 28.9208 160.929 28.9208C159.242 28.9208 157.452 29.2072 156.471 29.552C156.167 29.0932 156.099 28.576 156.099 28.2342C156.099 27.9171 156.198 27.603 156.471 27.4306" fill="white"/>
<path d="M115.797 39.1892C115.574 39.1892 115.367 39.1646 115.172 39.1215C113.828 38.8259 113.051 37.5296 112.859 35.2543C112.825 34.8725 112.806 34.463 112.806 34.0288C112.806 33.7548 112.816 33.4962 112.831 33.2437C112.912 31.8366 113.209 30.7774 113.729 30.0939C114.326 29.3057 115.19 28.9239 116.37 28.9239C116.989 28.9239 117.608 28.9762 118.218 29.0809V38.4472C118.138 38.5088 118.054 38.5673 117.967 38.6227C117.367 39.0076 116.655 39.1954 115.8 39.1954M112.72 46.1446C112.203 46.16 111.735 46.1539 111.364 46.12C111.209 46.6311 111.311 47.1422 111.426 47.4747C111.528 47.7796 111.735 48.0597 112.06 48.1613C112.212 48.1983 112.438 48.2291 112.72 48.2445C112.862 48.2537 112.596 48.2445 112.766 48.2445C115.388 48.2075 117.048 47.5271 118.617 46.2062C119.125 45.7813 119.546 45.2979 119.893 44.7745C120.655 43.6322 121.048 42.2713 121.048 40.6948V27.3598L120.881 27.3136C119.487 26.938 117.97 26.7471 116.367 26.7471C114.2 26.7471 112.565 27.3444 111.522 28.5236C110.528 29.6444 110.014 31.4148 109.977 33.7825C109.977 33.8626 109.974 33.9426 109.974 34.0288C109.974 35.0141 110.057 35.8947 110.221 36.6829C110.602 38.518 111.419 39.8112 112.67 40.5532C113.515 41.0551 114.556 41.3106 115.797 41.3106C116.621 41.3106 117.435 41.1659 118.215 40.8765V40.975C118.215 42.4252 117.738 43.6045 116.809 44.4943C116.735 44.5682 116.661 44.6421 116.58 44.7098C115.72 45.4334 115.057 45.9045 113.667 46.0553C113.104 46.12 112.927 46.1415 112.72 46.1446Z" fill="white"/>
</svg>
