<?xml version="1.0" encoding="UTF-8" standalone="no"?>
<svg
   width="200"
   viewBox="0 0 200 157.01212"
   version="1.1"
   id="svg1"
   height="157.01212"
   xmlns="http://www.w3.org/2000/svg"
   xmlns:svg="http://www.w3.org/2000/svg">
  <defs
     id="defs1" />
  <path
     d="m 114.86549,101.95241 83.01585,27.55229 c 1.34912,0.44111 2.22079,1.74849 2.10905,3.16358 -0.009,0.11465 -0.009,0.28674 -0.0105,0.50034 -0.008,1.45794 -0.0258,4.86069 -2.56968,5.31077 L 90.83576,157.01212 90.29728,156.85506 4.81339,128.60723 c -2.89606,-0.95782 -4.83843004,-3.68097 -4.80146004,-6.73101 V 27.3279 c -0.07083,-1.4198 0.1744,-2.83735 0.71797,-4.15079 C 2.03123,20.88856 5.28455,20.46227 7.9994,19.9911 L 109.09924,3.14113 c 1.42249,-0.23828 2.87773,0.16356 3.97646,1.09805 1.09873,0.93426 1.72897,2.30605 1.72247,3.74828 v 11.57735 c 2.65718,-0.34238 5.33119,-0.53713 8.00991,-0.58335 -0.94952,-0.83868 -1.53669,-2.01302 -1.63788,-3.27576 0.10456,-1.25556 0.6915,-2.42159 1.63788,-3.25332 l 0.38142,-0.4263 c -0.0341,-0.20417 -0.079,-0.40633 -0.13462,-0.60579 -0.3895,-1.17344 -0.30895,-2.45211 0.22437,-3.56744 0.69913,-1.03658 1.7799,-1.75433 3.00652,-1.99687 l 0.58335,-0.17949 c 0.07,-0.18353 0.12991,-0.37088 0.17949,-0.56092 0.24389,-1.232 0.96074,-2.31928 1.99687,-3.02896 1.11466,-0.54028 2.39893,-0.61297 3.56744,-0.20193 l 0.60579,0.11218 0.4263,-0.38142 C 134.41706,0.59771 135.62079,0 136.89833,0 c 1.27732,0 2.48128,0.59771 3.25332,1.61544 0.16379,0.16738 0.34418,0.3177 0.53848,0.44873 l 0.60579,-0.11218 c 1.1685,-0.41104 2.45278,-0.33835 3.56744,0.20193 0.97151,0.72156 1.64259,1.77609 1.88468,2.96165 0.0496,0.19004 0.10949,0.37739 0.17949,0.56092 l 0.56092,0.17949 c 1.22908,0.25062 2.31435,0.9659 3.02896,1.99687 0.51694,1.12049 0.58919,2.39557 0.20193,3.56744 -0.0108,0.20171 -0.0108,0.40409 0,0.60579 0.0897,0.13462 0.38142,0.29168 0.38142,0.4263 0.93808,0.83554 1.51672,2.00113 1.61544,3.25332 -0.0884,1.26139 -0.66839,2.43775 -1.61544,3.27576 -0.13866,0.13125 -0.26632,0.27395 -0.38142,0.4263 -0.0108,0.20171 -0.0108,0.40409 0,0.60579 0.40162,1.17187 0.32085,2.45525 -0.22437,3.56744 -0.20754,0.36213 -0.48172,0.68185 -0.80772,0.94234 2.35989,1.9603 4.36394,4.31323 5.92329,6.95538 2.13194,3.51875 3.429,7.47928 3.79181,11.57735 0.53713,5.95313 -0.88917,11.91838 -4.06105,16.98459 l 12.07095,10.02921 c 2.9069,2.44448 4.73594,5.93384 5.09313,9.7151 l 0.40386,12.587 c -0.0269,2.3296 -0.91407,4.56699 -2.49048,6.28228 -1.16648,1.1077 -2.7218,1.71215 -4.33029,1.68275 h -0.20193 c -5.3175,0 -6.95538,-5.22775 -7.13488,-7.9426 l -1.07696,-11.7344 -6.23741,-1.66032 c 1.69195,2.16918 2.72763,4.77723 2.98408,7.5163 l 0.40386,12.56456 c -0.0236,2.33701 -0.91071,4.58247 -2.49048,6.30472 -1.16648,1.1077 -2.7218,1.71215 -4.33029,1.68275 h -0.17949 c -5.25019,-0.13462 -6.97782,-5.27263 -7.15731,-8.00991 l -1.07696,-11.7344 -24.72526,-6.55152 z m 12.69918,-88.62503 c -0.29415,0.86202 -0.80391,1.63429 -1.48082,2.24367 l -0.33655,0.15706 0.17949,0.20193 c 0.66951,0.61566 1.17793,1.38592 1.48082,2.24367 0.1869,0.92417 0.14068,1.88042 -0.13462,2.78215 0.0105,0.06686 0.0105,0.13507 0,0.20193 h 0.22437 c 0.90712,0.22123 1.74647,0.66009 2.4456,1.27889 0.63159,0.69015 1.07225,1.5331 1.27889,2.4456 v 0.22437 h 0.22437 l 0.56092,-0.11218 h 1.68275 l 0.51604,0.11218 c 0.85619,0.29482 1.62666,0.79561 2.24367,1.45839 l 0.20193,0.20193 c 0.0781,-0.05542 0.14651,-0.12385 0.20193,-0.20193 l 0.22437,-0.20193 c 0.4153,-0.39242 0.88356,-0.72471 1.39108,-0.98722 0.22055,-0.11645 0.45412,-0.20687 0.69554,-0.26924 0.4447,-0.1252 0.90936,-0.16311 1.36864,-0.11218 h 1.61544 v -0.15706 c 0.32892,-1.90847 1.81805,-3.40657 3.72449,-3.74693 h 0.22437 c 0.0106,-0.06686 0.0106,-0.13507 0,-0.20193 -0.22975,-0.91317 -0.22975,-1.86898 0,-2.78215 0.29549,-0.85574 0.79628,-1.62621 1.45839,-2.24367 0.0781,-0.05542 0.14651,-0.12385 0.20193,-0.20193 l -0.20193,-0.20193 c -0.66278,-0.61701 -1.16357,-1.38749 -1.45839,-2.24367 -0.22975,-0.91317 -0.22975,-1.86898 0,-2.78215 0.0126,-0.07427 0.0126,-0.1501 0,-0.22437 h -0.20193 C 144.98318,9.98342 144.13754,9.545 143.42742,8.92979 142.81221,8.21967 142.37379,7.37403 142.14853,6.46175 V 6.28226 h -0.20193 c -0.39825,0.10254 -0.80301,0.17747 -1.21158,0.22437 -0.4963,0.04959 -0.99754,0.01167 -1.48082,-0.11218 -0.24164,-0.06237 -0.47499,-0.15279 -0.69554,-0.26924 l -0.47117,-0.26924 c -0.16513,-0.10882 -0.32264,-0.22863 -0.47117,-0.35899 l -0.4263,-0.38142 -0.22437,-0.20193 -0.22437,-0.17949 -0.20193,0.17949 c -0.60938,0.67692 -1.38165,1.18668 -2.24367,1.48082 l -0.62823,0.11218 c -0.51133,0.03208 -1.02468,-0.0056 -1.5257,-0.11218 h -0.78529 c 0.006,0.07471 0.006,0.14965 0,0.22437 -0.20687,0.91452 -0.63877,1.76285 -1.25646,2.46804 -0.71012,0.61521 -1.55576,1.05363 -2.46804,1.27889 h -0.22437 c 0.009,0.07449 0.009,0.14988 0,0.22437 0.2753,0.8858 0.32915,1.82568 0.15706,2.73728 z M 8.69495,24.41112 C 7.77428,24.56481 7.10017,25.36244 7.10194,26.2958 L 6.96732,43.84131 C 24.66989,17.18649 65.1906,19.29554 70.48566,19.6994 c 5.03054,0.21517 10.01014,1.09805 14.80823,2.6251 1.16716,0.34665 2.7034,1.15773 3.99239,1.83824 1.21383,0.64057 2.20822,1.16559 2.46939,1.07853 1.63788,-0.56092 3.23089,-1.12184 4.82389,-1.59301 1.59301,-0.47117 3.16358,-0.94234 4.68927,-1.3462 l 2.24367,-0.58335 c 2.37829,-0.56092 4.48734,-1.00965 6.73101,-1.39108 V 7.98744 c -0.002,-0.11847 -0.05,-0.23132 -0.13462,-0.31411 -0.0765,-0.06372 -0.17029,-0.10276 -0.26924,-0.11218 z M 123.3017,23.6034 c -2.82209,0.02154 -5.63992,0.22392 -8.43621,0.60579 h -0.0673 c -1.3462,0.17949 -2.96165,0.4263 -4.46491,0.58335 -5.90041,1.11488 -11.70636,2.68276 -17.36602,4.68927 l -2.71484,0.94234 c -7.12097,3.15842 -13.56569,7.66079 -18.98146,13.2601 -1.36864,1.32377 -2.71484,2.69241 -3.9713,4.03861 -1.95199,2.08661 -3.72449,4.15079 -5.27263,6.10279 -1.32377,1.57057 -2.6251,3.27576 -3.45525,4.48734 -0.83016,1.21158 -2.06418,3.20845 -2.06418,3.20845 0,0 -3.43282,5.78867 -2.55779,8.45864 0.46848,0.86583 1.42585,1.3489 2.40073,1.21158 -0.47117,0.87503 -1.99687,0.91991 -3.1187,0.58335 -2.88536,-0.95782 -4.61972,-3.89973 -4.06105,-6.88807 0.12363,-0.79605 0.40588,-1.5589 0.83016,-2.24367 0.83016,-1.57057 1.72763,-3.14114 2.66997,-4.68927 -2.76151,0.50999 -5.14923,2.23088 -6.50665,4.68927 -1.14786,2.23918 -1.27059,4.86563 -0.33655,7.20219 1.19767,2.73818 3.52122,4.82434 6.37203,5.72136 4.41083,1.50012 9.22912,1.2513 13.46203,-0.69554 h 0.13462 c 1.86225,-0.74041 7.22462,-2.89434 12.47481,-4.95851 5.76624,-2.24367 11.35298,-4.48734 11.89146,-4.48734 1.95199,-0.80772 3.94886,-1.54813 5.22775,0 0.2468,0.40386 7.62848,7.58361 12.8338,8.97469 l 2.08661,0.56092 4.48734,1.16671 29.10042,7.65092 1.3462,14.92042 c 0.0224,0.20193 0.33655,3.88155 2.80459,3.88155 0.48082,0.0695 0.96545,-0.0976 1.30133,-0.44873 0.62778,-0.8526 0.97308,-1.88042 0.98722,-2.93921 l -0.40386,-12.31776 c -0.20889,-2.6132 -1.46265,-5.03166 -3.47769,-6.70858 l -15.25697,-12.69918 1.25646,-1.70519 c 2.0193,-2.71484 7.02269,-11.0613 6.1701,-17.09678 -0.13978,-0.56406 -0.0267,-1.1611 0.3094,-1.63519 0.3361,-0.47386 0.86202,-0.77811 1.44066,-0.83285 1.24008,-0.18376 2.41307,0.61768 2.69241,1.83981 0.91991,7.02269 -3.56744,15.12235 -5.81111,18.64491 l 6.05791,5.02582 0.89747,0.74041 17.81475,4.68927 1.3462,14.92042 c 0.0224,0.20193 0.33655,3.88155 2.80459,3.88155 2.06418,0 2.24367,-3.09627 2.24367,-3.47769 l -0.40386,-12.31776 c -0.22639,-2.53221 -1.43438,-4.8755 -3.36551,-6.52908 l -15.25697,-12.72162 1.25646,-1.70519 c 5.47209,-7.43418 5.95829,-17.42301 1.23402,-25.35349 -1.32848,-2.19857 -3.01146,-4.16201 -4.98095,-5.81111 l -0.49361,-0.40386 c -0.12385,0.21629 -0.25847,0.42585 -0.40386,0.62823 -0.2854,0.47274 -0.67714,0.87234 -1.14427,1.16671 -1.13979,0.54454 -2.45211,0.60108 -3.63475,0.15706 l -0.60579,-0.11218 c -0.15235,0.1151 -0.29504,0.24277 -0.4263,0.38142 -0.77676,1.01818 -1.98385,1.61567 -3.26454,1.61567 -1.28069,0 -2.48778,-0.59749 -3.26454,-1.61567 -0.13462,-0.11218 -0.29168,-0.38142 -0.4263,-0.38142 l -0.60579,0.11218 c -1.16895,0.42248 -2.46063,0.34126 -3.56744,-0.22437 -1.03658,-0.69913 -1.75433,-1.7799 -1.99687,-3.00652 l -0.17949,-0.56092 -0.58335,-0.20193 c -1.22482,-0.23244 -2.30672,-0.94279 -3.00652,-1.97443 z M 70.19399,25.21884 C 64.74187,24.83742 18.52223,22.41425 7.10194,56.63024 v 40.04954 l 0.47117,0.60579 c 2.85148,3.49542 6.14766,6.60313 9.80485,9.24393 l 0.38142,0.31411 c 3.58449,2.98408 7.4813,5.57193 11.62222,7.71823 0.25914,0.14113 0.49406,0.32286 0.69554,0.53848 l 80.2337,-13.46203 V 79.56056 l -3.23089,-0.8526 c -0.49361,-0.13462 -0.96478,-0.31411 -1.43595,-0.47117 -8.39133,15.8852 -26.5202,25.57786 -45.20998,25.57786 -5.88941,0.009 -11.73799,-0.97667 -17.29871,-2.91677 C 33.60128,97.75898 25.86218,90.69748 21.8653,81.49012 18.51931,73.23655 18.92048,63.93698 22.9647,56.00201 29.98739,41.73226 48.65474,34.732 64.56237,40.29631 c 0.44873,0.15706 0.87503,0.35899 1.32377,0.53848 0.65066,-0.65066 1.59301,-1.48082 2.0193,-1.88468 0.4263,-0.40386 0.87503,-0.78529 1.32377,-1.16671 l 1.14427,-0.96478 1.18915,-0.94234 c 0.33655,-0.29168 0.47117,-0.35899 1.05453,-0.80772 0.58335,-0.44873 1.18915,-0.87503 1.79494,-1.30133 0.07337,-0.06529 0.15661,-0.11824 0.2468,-0.15706 0.6731,-0.49361 1.36864,-0.94234 2.06418,-1.39108 0.21405,-0.151 0.43909,-0.28584 0.6731,-0.40386 0.65066,-0.4263 1.30133,-0.80772 1.97443,-1.18915 1.68275,-0.96478 3.45525,-1.86225 5.27263,-2.69241 L 83.72333,27.57468 C 79.4184,26.20985 74.95259,25.41784 70.44079,25.21882 Z m -20.01355,55.9123 c -4.36686,-1.46602 -7.8957,-4.73347 -9.69266,-8.97469 -1.56227,-3.78126 -1.40678,-8.05433 0.4263,-11.71197 3.03322,-5.48735 9.03953,-8.64464 15.2794,-8.03234 1.68702,-2.40454 3.49945,-4.71889 5.42969,-6.93295 -13.03573,-4.06105 -27.97859,1.66032 -33.65507,13.12548 -3.32624,6.49857 -3.66212,14.12257 -0.91991,20.88858 3.35272,7.75076 9.89998,13.66777 17.94937,16.22175 21.06808,7.29193 45.59141,-1.41351 55.46356,-19.63213 -1.40768,-0.82118 -2.74356,-1.75926 -3.99374,-2.80459 -1.08683,-0.79157 -2.06059,-1.7274 -2.89434,-2.78215 -1.29303,-0.43101 -14.71333,4.88268 -21.21728,7.45774 -0.60646,0.24007 -1.15257,0.45636 -1.6233,0.64191 -5.51943,2.17636 -13.59665,4.95851 -20.55203,2.53535 z M 14.1022,110.99441 c -2.49451,-1.79247 -4.83585,-3.78866 -7.00026,-5.96817 v 13.84345 l 14.3595,-2.40073 c -2.58314,-1.64304 -5.04288,-3.47275 -7.35924,-5.47456 z m 79.3811,37.13276 c 0.16424,0.0121 0.32937,0.0121 0.49361,0 l 97.06123,-16.17687 -78.34901,-25.95928 -0.31411,-0.11218 -98.27282,16.3788 77.63104,25.6676 c 0.56271,0.18981 1.15908,0.25847 1.75006,0.20193 z m 10.05165,-36.70647 c 0.1777,1.09738 1.13216,1.89904 2.24367,1.88468 l 0.2468,0.0224 2.24367,-0.35899 c 1.23918,-0.2044 2.07786,-1.3747 1.87347,-2.61388 -0.2044,-1.23918 -1.3747,-2.07786 -2.61388,-1.87347 l -2.13149,0.35899 c -0.58986,0.0936 -1.11802,0.41867 -1.46759,0.90285 -0.34956,0.48441 -0.49159,1.08796 -0.39466,1.67737 z m -8.71666,1.24524 c 0.10523,1.23918 1.1952,2.15819 2.43438,2.05296 h 0.35899 l 2.24367,-0.35899 c 1.23918,-0.2044 2.07786,-1.3747 1.87347,-2.61388 -0.2044,-1.23918 -1.3747,-2.07786 -2.61388,-1.87347 l -2.24367,0.35899 c -1.23918,0.10523 -2.15819,1.1952 -2.05296,2.43438 z m -8.29037,1.51448 c 0.18757,1.08841 1.13934,1.8784 2.24367,1.86225 l 0.22437,0.0449 2.24367,-0.35899 c 1.23918,-0.2044 2.07786,-1.3747 1.87347,-2.61388 -0.2044,-1.23918 -1.3747,-2.07786 -2.61388,-1.87347 l -2.13149,0.35899 c -1.21966,0.20597 -2.04264,1.36011 -1.83981,2.58022 z m 28.97702,1.17793 c 0.10523,1.23918 1.1952,2.15819 2.43438,2.05296 l 0.35899,-0.0673 2.24367,-0.35899 c 1.21966,-0.20597 2.04264,-1.36011 1.83981,-2.58022 -0.20597,-1.21966 -1.36011,-2.04264 -2.58022,-1.83981 l -2.24367,0.35899 c -1.23918,0.10523 -2.15819,1.1952 -2.05296,2.43438 z m -37.74978,0.14584 c 0.09917,1.23918 1.18399,2.16335 2.42317,2.06418 h 0.49361 l 2.13149,-0.35899 c 1.23918,-0.2044 2.07786,-1.3747 1.87347,-2.61388 -0.2044,-1.23918 -1.3747,-2.07786 -2.61388,-1.87347 l -2.24367,0.35899 c -1.23918,0.0992 -2.16335,1.18399 -2.06418,2.42317 z m 29.21261,1.25645 c 0.0992,1.23918 1.18399,2.16335 2.42317,2.06418 h 0.26924 l 2.24367,-0.35899 c 1.23918,-0.2044 2.07786,-1.3747 1.87347,-2.61388 -0.2044,-1.23918 -1.3747,-2.07786 -2.61388,-1.87347 l -2.13149,0.35899 c -1.23918,0.0992 -2.16335,1.18399 -2.06418,2.42317 z m -37.74978,0.16828 c 0.10523,1.23918 1.1952,2.15819 2.43438,2.05296 l 0.35899,0.0224 2.13149,-0.35899 c 1.23918,-0.2044 2.07786,-1.3747 1.87347,-2.61388 -0.2044,-1.23918 -1.3747,-2.07786 -2.61388,-1.87347 l -2.13149,0.33655 c -1.23918,0.10523 -2.15819,1.1952 -2.05296,2.43438 z m 29.22383,1.24523 c 0.09917,1.23918 1.18399,2.16335 2.42317,2.06418 h 0.38142 l 2.24367,-0.35899 c 1.23918,-0.2044 2.07786,-1.3747 1.87347,-2.61388 -0.2044,-1.23918 -1.3747,-2.07786 -2.61388,-1.87347 l -2.24367,0.35899 c -1.23918,0.0992 -2.16335,1.18399 -2.06418,2.42317 z m -37.5815,0.35899 c 0.18757,1.08841 1.13934,1.8784 2.24367,1.86225 l 0.38142,0.13462 2.24367,-0.35899 c 1.23918,-0.2044 2.07786,-1.3747 1.87347,-2.61388 -0.2044,-1.23918 -1.3747,-2.07786 -2.61388,-1.87347 l -2.24367,0.35899 c -1.19767,0.18488 -2.03209,1.28764 -1.88468,2.49048 z m 29.04432,1.08818 c 0.10523,1.23918 1.1952,2.15819 2.43438,2.05296 l 0.2468,-0.0224 2.24367,-0.33655 c 1.23918,-0.2044 2.07786,-1.3747 1.87347,-2.61388 -0.2044,-1.23918 -1.3747,-2.07786 -2.61388,-1.87347 l -2.13149,0.35899 c -1.23918,0.10523 -2.15819,1.1952 -2.05296,2.43438 z m -37.74977,0.14584 c 0.09917,1.23918 1.18399,2.16335 2.42317,2.06418 l 0.38142,-0.0224 2.13149,-0.33655 c 1.23918,-0.2044 2.07786,-1.3747 1.87347,-2.61388 -0.2044,-1.23918 -1.3747,-2.07786 -2.61388,-1.87347 l -2.13149,0.35899 c -1.23918,0.0992 -2.16335,1.18399 -2.06418,2.42317 z m 75.39858,0.3029 c 0.10523,1.23918 1.1952,2.15819 2.43438,2.05296 h 0.35899 l 2.24367,-0.35899 c 1.23918,-0.2044 2.07786,-1.3747 1.87347,-2.61388 -0.2044,-1.23918 -1.3747,-2.07786 -2.61388,-1.87347 l -2.24367,0.35899 c -1.23918,0.10523 -2.15819,1.1952 -2.05296,2.43438 z m -46.18598,0.95356 c 0.09917,1.23918 1.18399,2.16335 2.42317,2.06418 l 0.38142,0.0449 2.13149,-0.35899 c 0.6298,-0.0689 1.20104,-0.4005 1.57281,-0.9134 0.372,-0.5129 0.50954,-1.15908 0.37918,-1.77901 -0.20597,-1.21966 -1.36011,-2.04264 -2.58022,-1.83981 l -2.24367,0.35899 c -1.23918,0.0992 -2.16335,1.18399 -2.06418,2.42317 z m -37.64881,0.15705 c 0.09917,1.23918 1.18399,2.16335 2.42317,2.06418 l 0.26924,-0.11218 2.13149,-0.35899 c 0.59727,-0.0725 1.14046,-0.38187 1.5073,-0.85865 0.36706,-0.47656 0.52726,-1.08078 0.4447,-1.6767 -0.20597,-1.21966 -1.36011,-2.04264 -2.58022,-1.83981 l -2.13149,0.35899 c -1.23918,0.0992 -2.16335,1.18399 -2.06418,2.42317 z m 75.47712,0.49361 c 0.18757,1.08841 1.13934,1.8784 2.24367,1.86225 l 0.26924,-0.0673 2.24367,-0.35899 c 1.21966,-0.20597 2.04264,-1.36011 1.83981,-2.58022 -0.22706,-1.1712 -1.33117,-1.95985 -2.51291,-1.79494 l -2.24367,0.35899 c -1.21966,0.20597 -2.04264,1.36011 -1.83981,2.58022 z m -46.12989,0.96478 c 0.1777,1.09738 1.13216,1.89904 2.24367,1.88468 l 0.35899,0.0224 2.24367,-0.35899 c 1.23918,-0.2044 2.07786,-1.3747 1.87347,-2.61388 -0.2044,-1.23918 -1.3747,-2.07786 -2.61388,-1.87347 l -2.24367,0.35899 c -0.58986,0.0936 -1.11802,0.41867 -1.46759,0.90285 -0.34956,0.48441 -0.49159,1.08796 -0.39466,1.67737 z m -37.98536,-0.0224 c 0.09917,1.23918 1.18399,2.16335 2.42317,2.06418 h 0.49361 l 2.13149,-0.35899 c 1.23918,-0.2044 2.07786,-1.3747 1.87347,-2.61388 -0.2044,-1.23918 -1.3747,-2.07786 -2.61388,-1.87347 l -2.24367,0.35899 c -1.23918,0.0992 -2.16335,1.18399 -2.06418,2.42317 z m 75.4098,0.33656 c 0.0992,1.23918 1.18399,2.16335 2.42317,2.06418 l 0.26924,-0.0673 2.24367,-0.33655 c 1.21966,-0.20597 2.04264,-1.36011 1.83981,-2.58022 -0.0936,-0.58986 -0.41844,-1.11802 -0.90285,-1.46759 -0.48441,-0.34956 -1.08796,-0.49159 -1.67737,-0.39466 l -2.13149,0.35899 c -1.23918,0.0992 -2.16335,1.18399 -2.06418,2.42317 z m -46.18598,0.93112 c 0.10523,1.23918 1.1952,2.15819 2.43438,2.05296 h 0.47117 l 2.13149,-0.35899 c 1.23918,-0.2044 2.07786,-1.3747 1.87347,-2.61388 -0.2044,-1.23918 -1.3747,-2.07786 -2.61388,-1.87347 l -2.24367,0.35899 c -1.23918,0.10523 -2.15819,1.1952 -2.05296,2.43438 z m 37.74978,0.43751 c 0.0992,1.23918 1.18399,2.16335 2.42317,2.06418 l 0.35899,-0.0673 2.24367,-0.35899 c 0.58986,-0.0936 1.11802,-0.41867 1.46759,-0.90285 0.34956,-0.48441 0.49159,-1.08796 0.39466,-1.67737 -0.20597,-1.21966 -1.36011,-2.04264 -2.58022,-1.83981 l -2.24367,0.35899 c -1.23918,0.0992 -2.16335,1.18399 -2.06418,2.42317 z m -46.10746,1.07697 c 0.18757,1.08841 1.13934,1.8784 2.24367,1.86225 l 0.22437,0.0449 2.24367,-0.35899 c 1.23918,-0.2044 2.07786,-1.3747 1.87347,-2.61388 -0.2044,-1.23918 -1.3747,-2.07786 -2.61388,-1.87347 l -2.13149,0.35899 c -1.21966,0.20597 -2.04264,1.36011 -1.83981,2.58022 z m 37.46932,0.35898 c 0.09917,1.23918 1.18399,2.16335 2.42317,2.06418 h 0.26924 l 2.24367,-0.35899 c 1.23918,-0.2044 2.07786,-1.3747 1.87347,-2.61388 -0.2044,-1.23918 -1.3747,-2.07786 -2.61388,-1.87347 l -2.13149,0.35899 c -1.23918,0.0992 -2.16335,1.18399 -2.06418,2.42317 z m -46.17476,0.96478 c 0.09917,1.23918 1.18399,2.16335 2.42317,2.06418 h 0.26924 l 2.24367,-0.35899 c 1.23918,-0.2044 2.07786,-1.3747 1.87347,-2.61388 -0.2044,-1.23918 -1.3747,-2.07786 -2.61388,-1.87347 l -2.13149,0.35899 c -1.23918,0.0992 -2.16335,1.18399 -2.06418,2.42317 z m 37.64881,0.44874 c 0.09917,1.23918 1.18399,2.16335 2.42317,2.06418 h 0.49361 l 2.13149,-0.35899 c 1.23918,-0.2044 2.07786,-1.3747 1.87347,-2.61388 -0.2044,-1.23918 -1.3747,-2.07786 -2.61388,-1.87347 l -2.24367,0.35899 c -1.23918,0.0992 -2.16335,1.18399 -2.06418,2.42317 z m 36.9084,13.86589 c -0.42697,6.7e-4 -0.85125,-0.0675 -1.25646,-0.20193 l -17.14165,-5.69893 c -1.42339,-0.44447 -2.35316,-1.81087 -2.24367,-3.2982 0.11981,-1.48441 1.22594,-2.70116 2.69241,-2.96165 l 21.22513,-3.52256 c 1.04398,-0.17635 2.11533,-0.0915 3.1187,0.2468 l 19.56482,6.48421 c 1.06776,0.35203 1.75792,1.38659 1.67288,2.50753 -0.085,1.12094 -0.92327,2.03972 -2.03187,2.22662 l -24.97207,4.15079 c -0.20664,0.0431 -0.4171,0.0655 -0.62823,0.0673 z M 76.36409,128.58479 c 0.09917,1.23918 1.18399,2.16335 2.42317,2.06418 h 0.47117 l 2.13149,-0.35899 c 1.23918,-0.19834 2.08302,-1.36348 1.88468,-2.60266 -0.19834,-1.23918 -1.36348,-2.08302 -2.60266,-1.88468 l -2.24367,0.35899 c -1.23918,0.0992 -2.16335,1.18399 -2.06418,2.42317 z m -8.53717,1.44717 c 0.10523,1.23918 1.1952,2.15819 2.43438,2.05296 h 0.35899 l 2.24367,-0.35899 c 1.23918,-0.2044 2.07786,-1.3747 1.87347,-2.61388 -0.2044,-1.23918 -1.3747,-2.07786 -2.61388,-1.87347 l -2.24367,0.35899 c -1.23918,0.10523 -2.15819,1.1952 -2.05296,2.43438 z m -8.53717,1.40229 c 0.09917,1.23918 1.18399,2.16335 2.42317,2.06418 l 0.26924,-0.0449 2.24367,-0.35899 c 1.21966,-0.20597 2.04264,-1.36011 1.83981,-2.58022 -0.20597,-1.21966 -1.36011,-2.04264 -2.58022,-1.83981 l -2.13149,0.33655 c -1.23918,0.0992 -2.16335,1.18399 -2.06418,2.42317 z m 50.32555,1.03209 12.22801,4.03861 16.69292,-2.78215 -11.62222,-3.88155 c -0.3177,-0.07 -0.64707,-0.07 -0.96478,0 z"
     fill-rule="evenodd"
     id="path1"
     style="fill:#ffffff" />
</svg>
